<!DOCTYPE svg PUBLIC "-//W3C//DTD SVG 20010904//EN" "http://www.w3.org/TR/2001/REC-SVG-20010904/DTD/svg10.dtd"[]><svg version="1.0" xmlns="http://www.w3.org/2000/svg" width="270" height="65" viewBox="0 0 1080.000000 263.000000" preserveAspectRatio="xMidYMid meet"><g transform="translate(0.000000,263.000000) scale(0.100000,-0.100000)" fill="#000000" stroke="none"><path d="M372 2603 c-43 -21 -79 -65 -92 -113 -7 -26 -10 -360 -8 -1027 l3 -988 27 -50 c31 -59 67 -94 128 -126 l45 -24 924 -3 c1022 -3 986 -5 1073 61 27 20 54 55 73 92 l30 59 3 970 c2 649 -1 987 -8 1019 -13 63 -41 102 -90 127 -38 20 -63 20 -1057 20 -917 0 -1021 -2 -1051 -17z m322 -154 c24 -19 26 -26 26 -98 0 -113 -8 -121 -120 -121 -112 0 -120 8 -120 121 0 72 2 79 26 98 21 17 41 21 94 21 53 0 73 -4 94 -21z m320 0 c24 -19 26 -26 26 -98 0 -113 -8 -121 -120 -121 -112 0 -120 8 -120 121 0 72 2 79 26 98 21 17 41 21 94 21 53 0 73 -4 94 -21z m320 0 c24 -19 26 -26 26 -101 0 -111 -7 -118 -117 -118 -111 0 -123 11 -123 115 0 67 3 79 25 100 21 22 33 25 93 25 55 0 75 -4 96 -21z m872 -21 l45 -41 42 41 c46 45 64 51 74 26 4 -10 -9 -31 -37 -59 l-43 -44 41 -45 c47 -50 49 -58 26 -77 -13 -11 -22 -6 -62 34 l-47 47 -47 -47 c-45 -45 -49 -46 -65 -30 -17 16 -15 20 30 64 l47 48 -47 47 c-39 40 -44 49 -33 63 18 22 26 19 76 -27z m-201 -83 c0 -19 -8 -20 -109 -23 -111 -3 -134 3 -123 33 6 13 24 15 119 13 105 -3 113 -4 113 -23z m302 -241 c15 -11 38 -36 51 -54 l22 -33 0 -716 c0 -798 3 -760 -69 -808 l-34 -23 -851 0 c-832 0 -852 1 -884 20 -18 11 -41 34 -52 52 -19 32 -20 52 -20 750 0 394 4 727 9 740 13 34 60 77 95 87 18 6 387 9 868 8 832 -2 837 -2 865 -23z" /><path d="M681 1944 c-41 -29 -51 -72 -51 -221 0 -166 12 -200 74 -221 31 -10 193 -12 742 -10 l703 3 30 29 31 30 0 172 c0 168 -1 174 -24 201 l-24 28 -729 3 c-663 2 -730 1 -752 -14z m1463 -45 c26 -20 26 -21 26 -168 0 -116 -3 -151 -16 -169 l-15 -22 -711 0 c-648 0 -713 1 -730 17 -16 14 -18 34 -18 168 0 153 5 175 40 188 8 3 326 6 706 6 685 1 692 1 718 -20z" /><path d="M815 1799 c-4 -6 -3 -15 2 -20 5 -5 255 -8 614 -7 529 3 604 5 604 18 0 13 -75 15 -607 18 -431 1 -609 -1 -613 -9z" /><path d="M813 1674 c-3 -9 0 -20 8 -25 8 -5 222 -8 484 -6 463 2 470 2 470 22 0 20 -8 20 -478 23 -431 2 -478 1 -484 -14z" /><path d="M671 1379 c-36 -34 -41 -62 -41 -222 0 -125 3 -158 18 -187 28 -57 42 -60 300 -60 326 0 311 -12 312 248 l0 184 -29 29 -29 29 -254 0 c-244 0 -255 -1 -277 -21z m529 -39 c18 -18 20 -33 20 -175 0 -85 -3 -155 -7 -155 -5 1 -21 18 -38 40 -29 36 -63 60 -87 60 -7 0 -31 -21 -55 -46 l-43 -47 -22 29 c-106 135 -127 136 -223 10 -27 -36 -53 -65 -57 -66 -5 0 -8 76 -8 169 0 164 1 170 22 185 19 13 60 16 250 16 215 0 229 -1 248 -20z m-281 -306 c29 -36 51 -67 48 -70 -2 -3 -57 -3 -121 -2 l-117 3 56 68 c31 37 62 67 68 67 7 0 36 -30 66 -66z m225 -18 c20 -24 36 -47 36 -50 0 -3 -34 -6 -75 -6 -59 0 -75 3 -75 15 0 15 57 85 70 85 4 0 24 -20 44 -44z" /><path d="M926 1298 c-56 -51 -26 -138 48 -138 43 0 74 26 82 67 5 27 1 37 -24 63 -36 36 -71 39 -106 8z" /><path d="M1453 1364 c-3 -8 -1 -20 4 -25 5 -5 156 -8 379 -7 361 3 369 3 369 23 0 20 -8 20 -373 23 -332 2 -373 1 -379 -14z" /><path d="M1453 1214 c-3 -8 -1 -20 4 -25 5 -5 156 -8 379 -7 361 3 369 3 369 23 0 20 -8 20 -373 23 -332 2 -373 1 -379 -14z" /><path d="M1582 1073 c-34 -14 -42 -59 -42 -243 l0 -182 29 -29 29 -29 262 0 261 0 24 25 c25 24 25 25 25 223 0 267 31 242 -311 241 -145 0 -270 -3 -277 -6z m532 -49 c13 -13 16 -44 16 -188 0 -130 -3 -176 -13 -184 -14 -12 -497 -19 -516 -8 -16 10 -15 368 1 384 9 9 79 12 254 12 207 0 245 -2 258 -16z" /><path d="M641 816 c-28 -33 7 -36 385 -34 361 3 369 3 369 23 0 20 -8 20 -371 23 -306 2 -373 0 -383 -12z" /><path d="M637 666 c-13 -34 16 -36 389 -34 361 3 369 3 369 23 0 20 -8 20 -376 23 -320 2 -378 0 -382 -12z" /><path d="M88 2325 c-20 -13 -45 -44 -57 -68 -21 -43 -21 -47 -21 -1033 0 -1089 -3 -1040 61 -1117 17 -20 52 -49 77 -65 l47 -27 944 -3 c849 -2 950 -1 993 14 53 17 128 80 128 107 0 32 -22 28 -68 -15 -29 -28 -64 -49 -92 -56 -35 -10 -257 -12 -965 -10 -1028 3 -944 -3 -1020 75 -67 69 -65 30 -65 1100 0 1049 -2 1007 56 1051 55 41 56 43 43 58 -15 19 -18 18 -61 -11z" /><path d="M3692 1502 c-10 -7 -12 -89 -10 -396 3 -370 4 -388 22 -402 21 -15 63 -18 90 -8 14 5 16 35 16 230 l0 224 32 20 c48 29 106 35 155 15 72 -29 77 -43 80 -270 4 -220 6 -225 67 -225 59 0 58 -3 54 236 -3 218 -3 219 -30 266 -39 66 -106 98 -205 98 -43 0 -89 -6 -110 -15 -19 -8 -37 -15 -39 -15 -2 0 -4 46 -4 103 0 123 -11 147 -68 147 -20 0 -43 -4 -50 -8z" /><path d="M5287 1503 c-4 -3 -7 -167 -7 -362 0 -396 -2 -385 68 -420 100 -50 233 -53 328 -6 94 46 144 141 144 275 0 188 -99 300 -266 300 -41 0 -87 -6 -107 -15 -20 -8 -39 -15 -42 -15 -3 0 -5 52 -5 115 0 103 -2 115 -19 125 -22 11 -84 14 -94 3z m288 -314 c58 -16 100 -64 115 -131 24 -105 -4 -201 -72 -251 -38 -28 -117 -34 -173 -12 l-45 17 0 168 c0 185 -1 181 67 206 47 16 58 17 108 3z" /><path d="M2986 1434 c-18 -18 -20 -47 -6 -75 10 -17 22 -19 120 -19 l110 0 0 -315 c0 -300 1 -315 19 -325 22 -11 61 -13 85 -4 14 5 16 43 16 325 l0 319 89 0 c49 0 101 4 114 9 28 11 39 43 27 77 l-10 24 -274 0 c-236 0 -277 -2 -290 -16z" /><path d="M4516 1270 c-67 -26 -122 -82 -147 -150 -17 -45 -20 -72 -17 -150 3 -82 8 -102 32 -148 55 -100 132 -137 281 -137 84 1 107 4 142 23 47 25 63 58 45 97 l-11 24 -53 -24 c-128 -60 -299 -7 -310 96 -3 22 2 24 182 50 102 15 193 30 203 34 42 17 27 137 -26 207 -67 88 -211 123 -321 78z m192 -96 c29 -19 62 -72 62 -100 0 -18 -11 -22 -132 -38 -73 -10 -143 -20 -155 -23 -26 -6 -28 3 -12 60 13 48 62 104 103 117 39 11 104 4 134 -16z" /><path d="M6120 1270 c-74 -25 -143 -99 -166 -177 -21 -73 -15 -191 13 -253 41 -93 126 -150 234 -158 134 -9 241 50 290 161 18 41 23 71 23 142 0 79 -3 98 -27 147 -66 135 -215 191 -367 138z m191 -103 c52 -34 79 -97 79 -182 0 -124 -62 -205 -157 -205 -91 0 -144 49 -163 151 -12 64 1 152 28 189 52 71 146 92 213 47z" /><path d="M7070 1280 c-18 -4 -27 -16 -33 -40 -45 -176 -123 -410 -137 -410 -8 0 -57 121 -126 314 -23 65 -48 123 -56 127 -21 13 -84 10 -97 -4 -8 -10 -1 -42 28 -128 64 -192 129 -337 169 -375 l35 -34 -35 -52 c-19 -29 -56 -76 -82 -104 -25 -29 -46 -57 -46 -63 0 -22 40 -51 70 -51 63 0 168 133 254 322 82 181 153 428 136 473 -9 24 -41 34 -80 25z" /><path d="M7398 1281 c-84 -27 -132 -86 -132 -161 0 -87 50 -133 174 -165 121 -30 150 -51 150 -106 0 -71 -128 -94 -241 -43 -66 30 -89 23 -89 -26 0 -51 71 -90 180 -97 173 -12 270 51 270 175 0 91 -60 145 -195 178 -85 20 -101 28 -121 59 -50 77 89 125 218 74 50 -19 53 -20 65 -3 26 35 6 72 -56 104 -30 16 -186 23 -223 11z" /><path d="M8238 1271 c-75 -24 -124 -56 -132 -84 -3 -12 -6 -122 -6 -244 0 -252 0 -253 76 -253 l44 0 2 133 c1 72 2 177 2 232 l1 99 30 15 c48 24 143 27 181 6 18 -10 36 -25 41 -34 4 -9 10 -110 13 -224 6 -233 4 -229 80 -225 l45 3 3 190 c1 110 -2 212 -9 242 -21 104 -92 154 -229 159 -64 3 -99 0 -142 -15z" /><path d="M8936 1270 c-63 -25 -119 -79 -147 -144 -17 -40 -22 -70 -22 -139 0 -80 3 -93 34 -154 57 -112 159 -161 310 -151 118 9 184 56 164 117 -8 26 -21 26 -76 1 -58 -26 -159 -26 -215 -1 -44 20 -82 65 -86 102 -3 22 1 24 187 50 167 24 192 30 208 50 36 45 -3 173 -71 229 -73 60 -192 77 -286 40z m192 -96 c29 -19 62 -72 62 -100 0 -18 -11 -22 -132 -38 -73 -10 -143 -20 -155 -23 -19 -4 -23 -1 -23 18 1 60 60 141 116 159 37 12 102 4 132 -16z" /><path d="M10470 1275 c-26 -8 -60 -30 -80 -50 -33 -34 -35 -40 -35 -105 0 -59 3 -72 25 -95 34 -37 63 -50 161 -75 47 -12 94 -31 107 -43 22 -20 30 -70 14 -93 -28 -43 -146 -47 -234 -7 -59 26 -61 26 -74 8 -53 -72 66 -142 226 -133 157 9 238 91 210 214 -15 66 -67 105 -185 138 -112 31 -135 46 -135 87 0 66 112 91 222 49 58 -22 78 -15 78 27 0 74 -169 118 -300 78z" /><path d="M9420 1264 c-11 -13 -9 -36 14 -137 43 -185 95 -368 114 -401 20 -35 66 -49 116 -35 32 9 33 12 90 191 32 101 60 190 63 198 6 16 14 -6 82 -225 22 -71 46 -138 54 -149 10 -14 26 -18 67 -18 41 0 57 4 67 18 24 33 129 402 140 491 7 63 -6 83 -51 83 -45 0 -51 -8 -65 -80 -22 -115 -84 -385 -91 -393 -3 -4 -33 82 -66 190 -32 109 -67 206 -76 215 -19 19 -83 24 -106 9 -7 -4 -40 -95 -73 -202 -33 -107 -62 -201 -66 -209 -7 -19 -34 81 -74 283 -18 88 -39 165 -46 173 -19 19 -77 18 -93 -2z" /></g></svg>